<svg xmlns="http://www.w3.org/2000/svg" width="1024" height="500" viewBox="0 0 1024 500">
  <!-- Background -->
  <rect x="0" y="0" width="1024" height="500" fill="#0b1220"/>

  <!-- Left mark -->
  <g transform="translate(130 250)">
    <!-- Fill-only icon (strokes are not reliably rendered by ImageMagick SVG in this env) -->
    <circle cx="0" cy="0" r="118" fill="#0f172a"/>
    <circle cx="0" cy="0" r="126" fill="#3b82f6"/>
    <circle cx="0" cy="0" r="112" fill="#0f172a"/>
    <path d="M-44 10 L64 -38 L16 72 L6 26 L-44 10 Z" fill="#ffffff"/>
    <path d="M0 18 L16 34 L46 -18 L18 6 Z" fill="#22c55e"/>
  </g>

  <!-- Text -->
  <g transform="translate(310 170)">
    <text x="0" y="0" fill="#ffffff" font-family="Arial, Helvetica, sans-serif" font-size="70" font-weight="800">
      Organizel
    </text>
    <text x="0" y="60" fill="#d1d5db" font-family="Arial, Helvetica, sans-serif" font-size="28" font-weight="600">
      Capture fast. Organize automatically.
    </text>

    <!-- Pills -->
    <g transform="translate(0 110)">
      <rect x="0" y="0" rx="18" ry="18" width="170" height="44" fill="#111827" stroke="#374151"/>
      <text x="22" y="30" fill="#e5e7eb" font-family="Arial, Helvetica, sans-serif" font-size="20" font-weight="700">Todos</text>

      <rect x="190" y="0" rx="18" ry="18" width="170" height="44" fill="#111827" stroke="#374151"/>
      <text x="212" y="30" fill="#e5e7eb" font-family="Arial, Helvetica, sans-serif" font-size="20" font-weight="700">Info</text>

      <rect x="380" y="0" rx="18" ry="18" width="230" height="44" fill="#111827" stroke="#374151"/>
      <text x="402" y="30" fill="#e5e7eb" font-family="Arial, Helvetica, sans-serif" font-size="20" font-weight="700">People-linked</text>
    </g>
  </g>
</svg>


